<svg width="24" height="24" viewBox="0 0 24 24" fill="none" xmlns="http://www.w3.org/2000/svg">
<path d="M12 24C18.6274 24 24 18.6274 24 12C24 5.3726 18.6274 0 12 0C5.3726 0 0 5.3726 0 12C0 18.6274 5.3726 24 12 24Z" fill="#6F95DE"/>
<path d="M4.46931 12.5869C5.8721 11.8142 7.438 11.1693 8.9011 10.5211C11.4182 9.45944 13.9453 8.41614 16.4979 7.44484C16.9945 7.27934 17.8869 7.11749 17.9744 7.85349C17.9265 8.89529 17.7294 9.93099 17.5942 10.9667C17.251 13.2443 16.8544 15.5141 16.4677 17.7842C16.3344 18.5403 15.3872 18.9318 14.7811 18.4479C13.3245 17.464 11.8567 16.4897 10.4187 15.483C9.94765 15.0043 10.3844 14.317 10.8051 13.9752C12.0048 12.7929 13.2771 11.7884 14.4141 10.545C14.7208 9.80434 13.8146 10.4285 13.5157 10.6198C11.8733 11.7516 10.2711 12.9525 8.53955 13.9472C7.65505 14.4341 6.62415 14.018 5.74005 13.7463C4.94734 13.4181 3.78573 13.0874 4.46923 12.587L4.46931 12.5869Z" fill="white"/>
</svg>
